<svg xmlns="http://www.w3.org/2000/svg" xmlns:xlink="http://www.w3.org/1999/xlink" width="500" zoomAndPan="magnify" viewBox="0 0 375 374.999991" height="500" preserveAspectRatio="xMidYMid meet" version="1.0"><defs><g/><clipPath id="c27d129617"><path d="M 112 37.5 L 263 37.5 L 263 169 L 112 169 Z M 112 37.5 " clip-rule="nonzero"/></clipPath><clipPath id="710ad7461f"><path d="M 93.605469 148 L 233 148 L 233 204.9375 L 93.605469 204.9375 Z M 93.605469 148 " clip-rule="nonzero"/></clipPath><clipPath id="28c8658522"><path d="M 137 158 L 281.480469 158 L 281.480469 204.9375 L 137 204.9375 Z M 137 158 " clip-rule="nonzero"/></clipPath><clipPath id="7208551c74"><path d="M 75 290.128906 L 133 290.128906 L 133 334.148438 L 75 334.148438 Z M 75 290.128906 " clip-rule="nonzero"/></clipPath></defs><rect x="-37.5" width="450" fill="#ffffff" y="-37.499999" height="449.999989" fill-opacity="1"/><rect x="-37.5" width="450" fill="#ffffff" y="-37.499999" height="449.999989" fill-opacity="1"/><g fill="#c4a007" fill-opacity="1"><g transform="translate(69.393208, 276.158333)"><g><path d="M 35.953125 -8.9375 L 17.078125 -8.9375 L 14.046875 0 L 1.15625 0 L 19.453125 -50.578125 L 33.71875 -50.578125 L 52.015625 0 L 38.984375 0 Z M 32.78125 -18.4375 L 26.515625 -36.953125 L 20.3125 -18.4375 Z M 32.78125 -18.4375 "/></g></g></g><g fill="#c4a007" fill-opacity="1"><g transform="translate(133.514341, 276.158333)"><g><path d="M 16.578125 -50.578125 L 16.578125 -20.3125 C 16.578125 -17.289062 17.316406 -14.960938 18.796875 -13.328125 C 20.285156 -11.691406 22.472656 -10.875 25.359375 -10.875 C 28.242188 -10.875 30.453125 -11.691406 31.984375 -13.328125 C 33.523438 -14.960938 34.296875 -17.289062 34.296875 -20.3125 L 34.296875 -50.578125 L 46.609375 -50.578125 L 46.609375 -20.390625 C 46.609375 -15.867188 45.644531 -12.046875 43.71875 -8.921875 C 41.800781 -5.804688 39.222656 -3.457031 35.984375 -1.875 C 32.742188 -0.289062 29.128906 0.5 25.140625 0.5 C 21.160156 0.5 17.59375 -0.273438 14.4375 -1.828125 C 11.289062 -3.390625 8.804688 -5.742188 6.984375 -8.890625 C 5.160156 -12.035156 4.25 -15.867188 4.25 -20.390625 L 4.25 -50.578125 Z M 16.578125 -50.578125 "/></g></g></g><g fill="#c4a007" fill-opacity="1"><g transform="translate(195.330071, 276.158333)"><g><path d="M 40.84375 -50.578125 L 40.84375 -40.703125 L 27.453125 -40.703125 L 27.453125 0 L 15.125 0 L 15.125 -40.703125 L 1.734375 -40.703125 L 1.734375 -50.578125 Z M 40.84375 -50.578125 "/></g></g></g><g fill="#c4a007" fill-opacity="1"><g transform="translate(248.932801, 276.158333)"><g><path d="M 28.390625 0.5 C 23.628906 0.5 19.265625 -0.601562 15.296875 -2.8125 C 11.335938 -5.019531 8.191406 -8.101562 5.859375 -12.0625 C 3.535156 -16.03125 2.375 -20.488281 2.375 -25.4375 C 2.375 -30.382812 3.535156 -34.828125 5.859375 -38.765625 C 8.191406 -42.703125 11.335938 -45.773438 15.296875 -47.984375 C 19.265625 -50.191406 23.628906 -51.296875 28.390625 -51.296875 C 33.140625 -51.296875 37.492188 -50.191406 41.453125 -47.984375 C 45.421875 -45.773438 48.546875 -42.703125 50.828125 -38.765625 C 53.109375 -34.828125 54.25 -30.382812 54.25 -25.4375 C 54.25 -20.488281 53.09375 -16.03125 50.78125 -12.0625 C 48.476562 -8.101562 45.359375 -5.019531 41.421875 -2.8125 C 37.484375 -0.601562 33.140625 0.5 28.390625 0.5 Z M 28.390625 -10.734375 C 32.421875 -10.734375 35.648438 -12.078125 38.078125 -14.765625 C 40.503906 -17.453125 41.71875 -21.007812 41.71875 -25.4375 C 41.71875 -29.90625 40.503906 -33.46875 38.078125 -36.125 C 35.648438 -38.789062 32.421875 -40.125 28.390625 -40.125 C 24.304688 -40.125 21.050781 -38.800781 18.625 -36.15625 C 16.195312 -33.519531 14.984375 -29.945312 14.984375 -25.4375 C 14.984375 -20.96875 16.195312 -17.398438 18.625 -14.734375 C 21.050781 -12.066406 24.304688 -10.734375 28.390625 -10.734375 Z M 28.390625 -10.734375 "/></g></g></g><g fill="#737373" fill-opacity="1"><g transform="translate(138.576988, 326.299472)"><g><path d="M 13.703125 0 L 8.578125 -8.796875 L 5.1875 -8.796875 L 5.1875 0 L 2.375 0 L 2.375 -21.515625 L 9.328125 -21.515625 C 10.953125 -21.515625 12.320312 -21.238281 13.4375 -20.6875 C 14.5625 -20.132812 15.398438 -19.382812 15.953125 -18.4375 C 16.515625 -17.488281 16.796875 -16.40625 16.796875 -15.1875 C 16.796875 -13.707031 16.367188 -12.398438 15.515625 -11.265625 C 14.660156 -10.140625 13.378906 -9.390625 11.671875 -9.015625 L 17.078125 0 Z M 5.1875 -11.046875 L 9.328125 -11.046875 C 10.847656 -11.046875 11.988281 -11.421875 12.75 -12.171875 C 13.507812 -12.929688 13.890625 -13.9375 13.890625 -15.1875 C 13.890625 -16.46875 13.515625 -17.457031 12.765625 -18.15625 C 12.015625 -18.851562 10.867188 -19.203125 9.328125 -19.203125 L 5.1875 -19.203125 Z M 5.1875 -11.046875 "/></g></g></g><g fill="#737373" fill-opacity="1"><g transform="translate(161.057276, 326.299472)"><g><path d="M 12.140625 0.21875 C 10.140625 0.21875 8.316406 -0.25 6.671875 -1.1875 C 5.023438 -2.125 3.722656 -3.429688 2.765625 -5.109375 C 1.804688 -6.785156 1.328125 -8.675781 1.328125 -10.78125 C 1.328125 -12.875 1.804688 -14.757812 2.765625 -16.4375 C 3.722656 -18.113281 5.023438 -19.421875 6.671875 -20.359375 C 8.316406 -21.296875 10.140625 -21.765625 12.140625 -21.765625 C 14.148438 -21.765625 15.976562 -21.296875 17.625 -20.359375 C 19.269531 -19.421875 20.566406 -18.117188 21.515625 -16.453125 C 22.460938 -14.785156 22.9375 -12.894531 22.9375 -10.78125 C 22.9375 -8.65625 22.460938 -6.757812 21.515625 -5.09375 C 20.566406 -3.425781 19.269531 -2.125 17.625 -1.1875 C 15.976562 -0.25 14.148438 0.21875 12.140625 0.21875 Z M 12.140625 -2.21875 C 13.640625 -2.21875 14.988281 -2.566406 16.1875 -3.265625 C 17.394531 -3.972656 18.34375 -4.972656 19.03125 -6.265625 C 19.71875 -7.566406 20.0625 -9.070312 20.0625 -10.78125 C 20.0625 -12.507812 19.71875 -14.015625 19.03125 -15.296875 C 18.34375 -16.585938 17.398438 -17.582031 16.203125 -18.28125 C 15.015625 -18.976562 13.660156 -19.328125 12.140625 -19.328125 C 10.609375 -19.328125 9.242188 -18.976562 8.046875 -18.28125 C 6.859375 -17.582031 5.921875 -16.585938 5.234375 -15.296875 C 4.546875 -14.015625 4.203125 -12.507812 4.203125 -10.78125 C 4.203125 -9.070312 4.546875 -7.566406 5.234375 -6.265625 C 5.921875 -4.972656 6.863281 -3.972656 8.0625 -3.265625 C 9.269531 -2.566406 10.628906 -2.21875 12.140625 -2.21875 Z M 12.140625 -2.21875 "/></g></g></g><g fill="#737373" fill-opacity="1"><g transform="translate(189.034019, 326.299472)"><g><path d="M 9.203125 0.21875 C 7.785156 0.21875 6.515625 -0.03125 5.390625 -0.53125 C 4.265625 -1.039062 3.382812 -1.742188 2.75 -2.640625 C 2.113281 -3.535156 1.785156 -4.570312 1.765625 -5.75 L 4.75 -5.75 C 4.851562 -4.738281 5.269531 -3.882812 6 -3.1875 C 6.726562 -2.5 7.796875 -2.15625 9.203125 -2.15625 C 10.535156 -2.15625 11.585938 -2.488281 12.359375 -3.15625 C 13.128906 -3.832031 13.515625 -4.695312 13.515625 -5.75 C 13.515625 -6.570312 13.289062 -7.238281 12.84375 -7.75 C 12.394531 -8.257812 11.828125 -8.648438 11.140625 -8.921875 C 10.460938 -9.191406 9.546875 -9.476562 8.390625 -9.78125 C 6.972656 -10.15625 5.835938 -10.523438 4.984375 -10.890625 C 4.128906 -11.265625 3.398438 -11.847656 2.796875 -12.640625 C 2.191406 -13.429688 1.890625 -14.5 1.890625 -15.84375 C 1.890625 -17.007812 2.1875 -18.046875 2.78125 -18.953125 C 3.375 -19.859375 4.210938 -20.554688 5.296875 -21.046875 C 6.378906 -21.546875 7.617188 -21.796875 9.015625 -21.796875 C 11.035156 -21.796875 12.6875 -21.289062 13.96875 -20.28125 C 15.257812 -19.269531 15.984375 -17.929688 16.140625 -16.265625 L 13.0625 -16.265625 C 12.957031 -17.085938 12.523438 -17.8125 11.765625 -18.4375 C 11.003906 -19.070312 9.992188 -19.390625 8.734375 -19.390625 C 7.566406 -19.390625 6.609375 -19.082031 5.859375 -18.46875 C 5.117188 -17.863281 4.75 -17.019531 4.75 -15.9375 C 4.75 -15.15625 4.96875 -14.515625 5.40625 -14.015625 C 5.851562 -13.523438 6.398438 -13.148438 7.046875 -12.890625 C 7.703125 -12.628906 8.613281 -12.335938 9.78125 -12.015625 C 11.207031 -11.617188 12.351562 -11.226562 13.21875 -10.84375 C 14.082031 -10.46875 14.820312 -9.882812 15.4375 -9.09375 C 16.050781 -8.300781 16.359375 -7.222656 16.359375 -5.859375 C 16.359375 -4.816406 16.082031 -3.832031 15.53125 -2.90625 C 14.976562 -1.976562 14.15625 -1.222656 13.0625 -0.640625 C 11.96875 -0.0664062 10.679688 0.21875 9.203125 0.21875 Z M 9.203125 0.21875 "/></g></g></g><g fill="#737373" fill-opacity="1"><g transform="translate(210.865828, 326.299472)"><g><path d="M 16.765625 -15.21875 C 16.765625 -13.425781 16.148438 -11.9375 14.921875 -10.75 C 13.703125 -9.570312 11.835938 -8.984375 9.328125 -8.984375 L 5.1875 -8.984375 L 5.1875 0 L 2.375 0 L 2.375 -21.515625 L 9.328125 -21.515625 C 11.753906 -21.515625 13.597656 -20.925781 14.859375 -19.75 C 16.128906 -18.582031 16.765625 -17.070312 16.765625 -15.21875 Z M 9.328125 -11.296875 C 10.890625 -11.296875 12.039062 -11.632812 12.78125 -12.3125 C 13.519531 -13 13.890625 -13.96875 13.890625 -15.21875 C 13.890625 -17.875 12.367188 -19.203125 9.328125 -19.203125 L 5.1875 -19.203125 L 5.1875 -11.296875 Z M 9.328125 -11.296875 "/></g></g></g><g fill="#737373" fill-opacity="1"><g transform="translate(232.450619, 326.299472)"><g><path d="M 5.1875 -19.234375 L 5.1875 -12.046875 L 13.03125 -12.046875 L 13.03125 -9.71875 L 5.1875 -9.71875 L 5.1875 -2.3125 L 13.953125 -2.3125 L 13.953125 0 L 2.375 0 L 2.375 -21.546875 L 13.953125 -21.546875 L 13.953125 -19.234375 Z M 5.1875 -19.234375 "/></g></g></g><g fill="#737373" fill-opacity="1"><g transform="translate(251.99739, 326.299472)"><g><path d="M 1.328125 -10.78125 C 1.328125 -12.875 1.800781 -14.757812 2.75 -16.4375 C 3.695312 -18.113281 4.988281 -19.425781 6.625 -20.375 C 8.257812 -21.320312 10.078125 -21.796875 12.078125 -21.796875 C 14.421875 -21.796875 16.46875 -21.226562 18.21875 -20.09375 C 19.96875 -18.96875 21.242188 -17.363281 22.046875 -15.28125 L 18.671875 -15.28125 C 18.078125 -16.582031 17.21875 -17.582031 16.09375 -18.28125 C 14.976562 -18.976562 13.640625 -19.328125 12.078125 -19.328125 C 10.566406 -19.328125 9.210938 -18.976562 8.015625 -18.28125 C 6.828125 -17.582031 5.894531 -16.585938 5.21875 -15.296875 C 4.539062 -14.015625 4.203125 -12.507812 4.203125 -10.78125 C 4.203125 -9.070312 4.539062 -7.570312 5.21875 -6.28125 C 5.894531 -5 6.828125 -4.003906 8.015625 -3.296875 C 9.210938 -2.597656 10.566406 -2.25 12.078125 -2.25 C 13.640625 -2.25 14.976562 -2.59375 16.09375 -3.28125 C 17.21875 -3.976562 18.078125 -4.972656 18.671875 -6.265625 L 22.046875 -6.265625 C 21.242188 -4.210938 19.96875 -2.625 18.21875 -1.5 C 16.46875 -0.375 14.421875 0.1875 12.078125 0.1875 C 10.078125 0.1875 8.257812 -0.28125 6.625 -1.21875 C 4.988281 -2.15625 3.695312 -3.457031 2.75 -5.125 C 1.800781 -6.789062 1.328125 -8.675781 1.328125 -10.78125 Z M 1.328125 -10.78125 "/></g></g></g><g fill="#737373" fill-opacity="1"><g transform="translate(279.541822, 326.299472)"><g><path d="M 15.625 -21.515625 L 15.625 -19.234375 L 9.75 -19.234375 L 9.75 0 L 6.953125 0 L 6.953125 -19.234375 L 1.046875 -19.234375 L 1.046875 -21.515625 Z M 15.625 -21.515625 "/></g></g></g><g clip-path="url(#c27d129617)"><path fill="#000000" d="M 147.277344 145.902344 L 186.761719 77.914062 L 227.722656 148.644531 C 229.410156 149.277344 231.3125 149.914062 233 150.53125 C 244.195312 154.542969 254.117188 160.847656 262.773438 168.851562 L 234.054688 119.175781 L 198.371094 57.707031 L 186.761719 37.5 L 174.941406 57.707031 L 139.464844 119.175781 L 112.226562 166.109375 C 120.253906 159.171875 129.117188 153.488281 138.621094 149.277344 C 141.578125 148.007812 144.320312 146.957031 147.277344 145.902344 Z M 147.277344 145.902344 " fill-opacity="1" fill-rule="evenodd"/></g><g clip-path="url(#710ad7461f)"><path fill="#000000" d="M 118.992188 201.261719 C 142.421875 162.75 188.664062 144.851562 232.164062 157.703125 C 218.648438 151.585938 203.648438 148.226562 188.238281 148.226562 C 172.828125 148.226562 157.835938 151.585938 144.320312 157.703125 C 125.105469 166.328125 108.632812 180.433594 97.238281 198.738281 L 93.648438 204.636719 L 117.085938 204.636719 C 117.722656 203.585938 118.355469 202.316406 118.992188 201.261719 Z M 118.992188 201.261719 " fill-opacity="1" fill-rule="evenodd"/></g><g clip-path="url(#28c8658522)"><path fill="#000000" d="M 215.273438 159.589844 C 186.335938 155.597656 157.199219 166.109375 137.570312 187.589844 C 152.347656 177.476562 169.871094 172.011719 188.238281 172.011719 C 215.058594 172.011719 240.386719 184.011719 257.492188 204.636719 L 281.351562 204.636719 L 279.242188 201.261719 C 276.707031 197.066406 273.964844 193.269531 270.792969 189.695312 C 261.085938 178.328125 248.621094 169.488281 234.488281 164.4375 C 228.355469 162.117188 222.023438 160.429688 215.273438 159.589844 Z M 215.273438 159.589844 " fill-opacity="1" fill-rule="evenodd"/></g><g clip-path="url(#7208551c74)"><path fill="#545454" d="M 111.839844 306.964844 L 87.542969 306.964844 C 85.457031 306.964844 83.375 308.730469 82.957031 310.707031 L 82.125 314.554688 L 77.742188 333.570312 C 77.742188 333.777344 77.742188 333.992188 77.953125 334.199219 C 78.160156 334.40625 78.265625 334.503906 78.578125 334.503906 L 85.667969 334.503906 C 85.980469 334.503906 86.292969 334.296875 86.398438 333.886719 L 90.464844 316.007812 L 106.105469 316.007812 C 108.1875 316.007812 110.277344 314.242188 110.691406 312.265625 Z M 96.40625 325.46875 L 94.84375 334.503906 L 106.105469 334.503906 C 118.617188 334.503906 130.394531 324.222656 132.585938 312.054688 C 134.667969 300.105469 126.746094 290.128906 114.445312 290.128906 L 76.597656 290.128906 L 75.242188 296.050781 C 74.824219 297.820312 75.867188 299.171875 77.640625 299.171875 L 114.445312 299.171875 C 121.117188 299.171875 124.765625 304.15625 123.617188 310.496094 C 122.160156 318.296875 114.132812 325.46875 106.105469 325.46875 Z M 96.40625 325.46875 " fill-opacity="1" fill-rule="evenodd"/></g></svg>